<?xml version="1.0" encoding="utf-8"?>
<!-- Generator: Adobe Illustrator 25.2.3, SVG Export Plug-In . SVG Version: 6.00 Build 0)  -->
<svg version="1.1" id="Lager_1" xmlns="http://www.w3.org/2000/svg" xmlns:xlink="http://www.w3.org/1999/xlink" x="0px" y="0px"
	 viewBox="0 0 800 514" style="enable-background:new 0 0 800 514;" xml:space="preserve">
<style type="text/css">
	.st0{fill:#4CD3D6;stroke:#404040;stroke-width:4;stroke-linecap:round;stroke-linejoin:round;stroke-miterlimit:10;}
	.st1{fill:#404040;}
	.st2{fill:#B18BE8;stroke:#404040;stroke-width:4;stroke-linecap:round;stroke-linejoin:round;stroke-miterlimit:10;}
	.st3{fill:#4ED1A1;stroke:#404040;stroke-width:4;stroke-linecap:round;stroke-linejoin:round;stroke-miterlimit:10;}
	.st4{fill:none;stroke:#404040;stroke-width:4;stroke-miterlimit:10;}
	.st5{fill:#4ED1A1;stroke:#404040;stroke-width:4;stroke-miterlimit:10;}
	.st6{fill:#B18BE8;stroke:#404040;stroke-width:4;stroke-miterlimit:10;}
	.st7{fill:none;stroke:#CCCCCC;stroke-width:4;stroke-linecap:round;stroke-linejoin:round;stroke-dasharray:0,14.9858;}
	.st8{fill:none;stroke:#CCCCCC;stroke-width:4;stroke-linecap:round;stroke-linejoin:round;}
	.st9{fill:none;stroke:#CCCCCC;stroke-width:4;stroke-linecap:round;stroke-linejoin:round;stroke-dasharray:0,14.0118;}
	.st10{fill:none;stroke:#CCCCCC;stroke-width:4;stroke-linecap:round;stroke-linejoin:round;stroke-dasharray:0,14.7877;}
	.st11{fill:none;stroke:#CCCCCC;stroke-width:4;stroke-linecap:round;stroke-linejoin:round;stroke-dasharray:0,14.9632;}
	.st12{fill:#B3E3FF;stroke:#404040;stroke-width:4;stroke-miterlimit:10;}
	.st13{fill:#B3E3FF;stroke:#404040;stroke-width:4;stroke-linecap:round;stroke-linejoin:round;stroke-miterlimit:10;}
	.st14{fill:none;stroke:#404040;stroke-width:4;stroke-linecap:round;stroke-linejoin:round;stroke-miterlimit:10;}
	.st15{fill:none;stroke:#CCCCCC;stroke-width:4;stroke-linecap:round;stroke-linejoin:round;stroke-dasharray:0,12.543;}
	.st16{fill:none;stroke:#CCCCCC;stroke-width:4;stroke-linecap:round;stroke-linejoin:round;stroke-dasharray:0,13.6844;}
	.st17{fill:none;stroke:#CCCCCC;stroke-width:4;stroke-linecap:round;stroke-linejoin:round;stroke-dasharray:0,13.7717;}
	.st18{fill:none;stroke:#CCCCCC;stroke-width:4;stroke-linecap:round;stroke-linejoin:round;stroke-dasharray:0,13.6492;}
	.st19{fill:none;stroke:#CCCCCC;stroke-width:4;stroke-linecap:round;stroke-linejoin:round;stroke-dasharray:0,13.907;}
	.st20{fill:#4CD3D6;stroke:#404040;stroke-width:4;stroke-linejoin:round;stroke-miterlimit:10;}
	.st21{fill:#414141;}
</style>
<path class="st0" d="M145.5,5.7h96.2v50h-96.2V5.7z"/>
<path class="st1" d="M170.8,32.4h-1.6v4.3h-1.5V26.1h4c2,0,3.3,1.4,3.3,3.2c0,1.5-1,2.7-2.6,3l2.5,4.5h-1.7L170.8,32.4z M171.5,31.1
	c1.2,0,2-0.7,2-1.8s-0.8-1.8-2-1.8h-2.2v3.6C169.3,31.1,171.5,31.1,171.5,31.1z M183.6,34.7c-0.4,1.3-1.6,2.3-3.2,2.3
	c-1.9,0-3.6-1.4-3.6-3.9c0-2.3,1.6-3.8,3.5-3.8c2.2,0,3.5,1.5,3.5,3.8v0.5h-5.4c0,1.3,1,2.2,2.2,2.2s1.8-0.6,2-1.5L183.6,34.7z
	 M182.2,32.4c0-1-0.7-1.8-2-1.8c-1.2,0-1.9,0.9-2,1.8H182.2z M186.2,36.7V25.9h1.4v10.9h-1.4V36.7z M197,34.7
	c-0.4,1.3-1.6,2.3-3.2,2.3c-1.9,0-3.6-1.4-3.6-3.9c0-2.3,1.6-3.8,3.5-3.8c2.2,0,3.5,1.5,3.5,3.8v0.5h-5.4c0,1.3,1,2.2,2.2,2.2
	s1.8-0.6,2-1.5L197,34.7z M195.6,32.4c0-1-0.7-1.8-2-1.8c-1.2,0-1.9,0.9-2,1.8H195.6z M201.4,32.6l2-0.3c0.4-0.1,0.6-0.3,0.6-0.5
	c0-0.7-0.5-1.3-1.6-1.3c-1,0-1.5,0.6-1.6,1.5l-1.3-0.3c0.2-1.4,1.4-2.3,3-2.3c2.2,0,3,1.2,3,2.6v3.6c0,0.6,0.1,1,0.1,1.2H204
	c0-0.2-0.1-0.5-0.1-1c-0.3,0.5-1,1.2-2.3,1.2c-1.5,0-2.4-1-2.4-2.2C199.2,33.5,200.1,32.8,201.4,32.6L201.4,32.6z M203.9,33.6v-0.3
	l-2.2,0.3c-0.6,0.1-1,0.4-1,1.1c0,0.5,0.5,1,1.2,1C202.9,35.8,203.9,35.2,203.9,33.6z M208.8,34.4c0.1,0.8,0.7,1.3,1.7,1.3
	c0.8,0,1.2-0.5,1.2-1c0-0.4-0.3-0.8-0.9-0.9l-1.2-0.3c-1.1-0.2-1.8-1-1.8-2c0-1.2,1.2-2.3,2.6-2.3c2,0,2.6,1.3,2.7,1.9l-1.2,0.5
	c-0.1-0.4-0.4-1.2-1.5-1.2c-0.7,0-1.2,0.5-1.2,1c0,0.4,0.3,0.8,0.8,0.9l1.2,0.3c1.3,0.3,2,1.1,2,2.1s-0.9,2.2-2.6,2.2
	c-2,0-2.8-1.3-2.9-2.1L208.8,34.4L208.8,34.4z M222,34.7c-0.4,1.3-1.6,2.3-3.2,2.3c-1.9,0-3.6-1.4-3.6-3.9c0-2.3,1.6-3.8,3.4-3.8
	c2.2,0,3.5,1.5,3.5,3.8v0.5h-5.4c0,1.3,1,2.2,2.2,2.2s1.8-0.6,2-1.5L222,34.7z M220.5,32.4c0-1-0.7-1.8-2-1.8c-1.2,0-1.9,0.9-2,1.8
	H220.5z"/>
<path class="st2" d="M283.7,5.7h96.2v50h-96.2V5.7z"/>
<path class="st1" d="M304,36.7V26.1h3.7c2.7,0,5.1,1.8,5.1,5.3s-2.4,5.3-5.1,5.3H304z M307.7,35.4c2,0,3.6-1.3,3.6-4s-1.6-4-3.6-4
	h-2.2v8H307.7z M321.7,34.7c-0.4,1.3-1.6,2.3-3.2,2.3c-1.9,0-3.6-1.4-3.6-3.9c0-2.3,1.6-3.8,3.5-3.8c2.2,0,3.5,1.5,3.5,3.8v0.5h-5.4
	c0,1.3,1,2.2,2.2,2.2s1.8-0.6,2-1.5L321.7,34.7z M320.3,32.4c0-1-0.7-1.8-2-1.8c-1.2,0-1.9,0.9-2,1.8H320.3z M327.8,36.7h-1.4
	l-2.9-7.2h1.6l2.1,5.6l2.1-5.6h1.5L327.8,36.7L327.8,36.7z M338.5,34.7c-0.4,1.3-1.6,2.3-3.2,2.3c-1.9,0-3.6-1.4-3.6-3.9
	c0-2.3,1.6-3.8,3.5-3.8c2.2,0,3.5,1.5,3.5,3.8v0.5h-5.4c0,1.3,1,2.2,2.2,2.2s1.8-0.6,2-1.5L338.5,34.7z M337.1,32.4
	c0-1-0.7-1.8-2-1.8c-1.2,0-1.9,0.9-2,1.8H337.1z M341.1,36.7V25.9h1.4v10.9h-1.4V36.7z M352.4,33.1c0,2.2-1.5,3.8-3.7,3.8
	s-3.7-1.6-3.7-3.8s1.5-3.8,3.7-3.8S352.4,30.9,352.4,33.1z M351,33.1c0-1.7-1-2.6-2.2-2.6s-2.2,0.9-2.2,2.6s1.1,2.6,2.2,2.6
	S351,34.8,351,33.1z M355,39.6V29.5h1.4v1.1c0.4-0.7,1.2-1.3,2.4-1.3c2.2,0,3.3,1.7,3.3,3.8s-1.2,3.8-3.4,3.8c-1.1,0-2-0.5-2.3-1.2
	v3.8H355V39.6z M358.5,30.6c-1.3,0-2.1,1.1-2.1,2.5c0,1.5,0.9,2.6,2.1,2.6c1.3,0,2.1-1.1,2.1-2.6C360.6,31.7,359.8,30.6,358.5,30.6z
	"/>
<path class="st3" d="M420.9,5.7h96.2v50h-96.2L420.9,5.7z"/>
<path class="st1" d="M443.4,36.2V25.6h6.5V27h-5v3.4h4.5v1.4h-4.5v4.5L443.4,36.2L443.4,36.2z M458,34.2c-0.4,1.3-1.6,2.3-3.2,2.3
	c-1.9,0-3.6-1.4-3.6-3.9c0-2.3,1.6-3.8,3.5-3.8c2.2,0,3.5,1.5,3.5,3.8v0.5h-5.4c0,1.3,1,2.2,2.2,2.2s1.8-0.6,2-1.5L458,34.2z
	 M456.6,31.9c0-1-0.7-1.8-2-1.8c-1.2,0-1.9,0.9-2,1.8H456.6z M462.4,32.1l1.9-0.3c0.4-0.1,0.6-0.3,0.6-0.5c0-0.7-0.5-1.3-1.6-1.3
	c-1,0-1.5,0.6-1.6,1.5l-1.3-0.3c0.1-1.4,1.4-2.3,3-2.3c2.2,0,3,1.2,3,2.6V35c0,0.6,0.1,1,0.1,1.2H465c0-0.2-0.1-0.5-0.1-1
	c-0.3,0.5-1,1.2-2.3,1.2c-1.5,0-2.4-1-2.4-2.2S461.1,32.3,462.4,32.1L462.4,32.1z M464.9,33.1v-0.3l-2.2,0.3c-0.6,0.1-1,0.4-1,1.1
	c0,0.5,0.4,1,1.2,1C463.9,35.3,464.9,34.7,464.9,33.1z M471.1,29h1.6v1.3h-1.6V34c0,0.7,0.3,1,1,1c0.2,0,0.4,0,0.6-0.1v1.2
	c-0.1,0-0.5,0.1-1,0.1c-1.2,0-2-0.8-2-2.1v-4h-1.4V29h0.4c0.8,0,1.1-0.5,1.1-1.1v-1.2h1.3C471.1,26.7,471.1,29,471.1,29z
	 M477.9,36.4c-1.7,0-2.7-1.3-2.7-2.9V29h1.4v4.3c0,1,0.5,1.9,1.6,1.9s1.7-0.8,1.7-1.8V29h1.4v5.9c0,0.6,0,1.1,0.1,1.3H480
	c0-0.2-0.1-0.6-0.1-0.9C479.7,36.1,478.8,36.4,477.9,36.4z M488.5,30.4h-0.6c-1.2,0-2,0.6-2,2.2v3.6h-1.4V29h1.4v1.3
	c0.5-1.1,1.4-1.4,2.2-1.4h0.5v1.5L488.5,30.4z M497,34.2c-0.4,1.3-1.6,2.3-3.2,2.3c-1.9,0-3.6-1.4-3.6-3.9c0-2.3,1.6-3.8,3.5-3.8
	c2.2,0,3.5,1.5,3.5,3.8v0.5h-5.4c0,1.3,1,2.2,2.2,2.2s1.8-0.6,2-1.5L497,34.2z M495.6,31.9c0-1-0.7-1.8-2-1.8c-1.2,0-1.9,0.9-2,1.8
	H495.6z"/>
<path class="st3" d="M558.2,5.7h96.2v50h-96.2V5.7z"/>
<path class="st1" d="M580.8,36.2V25.6h6.5V27h-5v3.4h4.5v1.4h-4.5v4.5L580.8,36.2L580.8,36.2z M595.4,34.2c-0.4,1.3-1.6,2.3-3.2,2.3
	c-1.9,0-3.6-1.4-3.6-3.9c0-2.3,1.6-3.8,3.5-3.8c2.2,0,3.5,1.5,3.5,3.8v0.5H590c0,1.3,1,2.2,2.2,2.2s1.8-0.6,2-1.5L595.4,34.2
	L595.4,34.2z M594,31.9c0-1-0.7-1.8-2-1.8c-1.2,0-1.9,0.9-2,1.8H594z M599.7,32.1l2-0.3c0.4-0.1,0.6-0.3,0.6-0.5
	c0-0.7-0.5-1.3-1.6-1.3c-1,0-1.5,0.6-1.6,1.5l-1.3-0.3c0.2-1.4,1.4-2.3,3-2.3c2.2,0,3,1.2,3,2.6V35c0,0.6,0.1,1,0.1,1.2h-1.4
	c0-0.2-0.1-0.5-0.1-1c-0.3,0.5-1,1.2-2.3,1.2c-1.5,0-2.4-1-2.4-2.2C597.5,33,598.5,32.3,599.7,32.1z M602.2,33.1v-0.3l-2.2,0.3
	c-0.6,0.1-1,0.4-1,1.1c0,0.5,0.5,1,1.2,1C601.3,35.3,602.2,34.7,602.2,33.1z M608.5,29h1.6v1.3h-1.6V34c0,0.7,0.3,1,1,1
	c0.2,0,0.4,0,0.6-0.1v1.2c-0.1,0-0.5,0.1-1,0.1c-1.2,0-2-0.8-2-2.1v-4h-1.4V29h0.4c0.8,0,1.1-0.5,1.1-1.1v-1.2h1.3L608.5,29
	L608.5,29z M615.3,36.4c-1.7,0-2.7-1.3-2.7-2.9V29h1.4v4.3c0,1,0.5,1.9,1.6,1.9s1.7-0.8,1.7-1.8V29h1.4v5.9c0,0.6,0,1.1,0.1,1.3
	h-1.4c0-0.2-0.1-0.6-0.1-0.9C617,36.1,616.1,36.4,615.3,36.4z M625.9,30.4h-0.6c-1.2,0-2,0.6-2,2.2v3.6h-1.4V29h1.4v1.3
	c0.5-1.1,1.4-1.4,2.2-1.4h0.5v1.5L625.9,30.4z M634.4,34.2c-0.4,1.3-1.6,2.3-3.2,2.3c-1.9,0-3.6-1.4-3.6-3.9c0-2.3,1.6-3.8,3.5-3.8
	c2.2,0,3.5,1.5,3.5,3.8v0.5h-5.4c0,1.3,1,2.2,2.2,2.2s1.8-0.6,2-1.5L634.4,34.2z M632.9,31.9c0-1-0.7-1.8-2-1.8
	c-1.2,0-1.9,0.9-2,1.8H632.9z"/>
<path class="st4" d="M424.3,399.1c0-17,13.8-30.8,30.8-30.8"/>
<path class="st4" d="M254,399.1c0-17-13.8-30.8-30.8-30.8 M164.3,491.4h214"/>
<circle class="st5" cx="315.7" cy="491.4" r="15.8"/>
<circle class="st5" cx="362.5" cy="491.4" r="15.8"/>
<circle class="st5" cx="242.3" cy="491.4" r="15.8"/>
<path class="st4" d="M776.1,368.4H179.7"/>
<circle class="st6" cx="485.1" cy="368.4" r="15.8"/>
<circle class="st6" cx="315.7" cy="368.4" r="15.8"/>
<circle class="st6" cx="776.1" cy="368.4" r="15.8"/>
<path class="st4" d="M254,399.1c0,17,13.8,30.8,30.8,30.8h107.9"/>
<circle class="st5" cx="315.7" cy="429.9" r="15.8"/>
<circle class="st5" cx="362.5" cy="429.9" r="15.8"/>
<path class="st4" d="M392.6,429.9h0.9c17,0,30.7-13.8,30.7-30.8"/>
<path class="st7" d="M59.1,306.9H21.7"/>
<path class="st8" d="M542.8,306.9"/>
<path class="st9" d="M528.8,306.9H101.4"/>
<path class="st8" d="M776.1,306.9"/>
<path class="st10" d="M761.3,306.9h-51.7"/>
<path class="st8" d="M776.1,245.4"/>
<path class="st11" d="M761.1,245.4h-82.3"/>
<path class="st4" d="M84.8,276.1c0-17-13.8-30.8-30.8-30.8"/>
<circle class="st5" cx="148.6" cy="491.4" r="15.8"/>
<path class="st4" d="M644.9,245.4H39.1"/>
<ellipse transform="matrix(0.9999 -1.514629e-02 1.514629e-02 0.9999 -3.7142 0.3811)" class="st12" cx="23.3" cy="245.4" rx="15.8" ry="15.8"/>
<circle class="st12" cx="315.7" cy="245.4" r="15.8"/>
<circle class="st12" cx="644.9" cy="245.4" r="15.8"/>
<path class="st13" d="M48.9,139.9h42.5v37.5H48.9V139.9z"/>
<path class="st1" d="M62.4,163.1h-1.2l-2.5-6.3h1.4l1.8,4.8l1.8-4.8H65L62.4,163.1z M67.1,155.9c0.5-0.8,1.4-1.4,2.6-1.4
	s2,0.5,2.6,1.4c0.6,0.8,0.8,1.9,0.8,3.1s-0.2,2.2-0.8,3.1c-0.5,0.8-1.4,1.4-2.6,1.4s-2-0.5-2.6-1.4c-0.6-0.8-0.8-1.9-0.8-3.1
	S66.6,156.7,67.1,155.9z M68.4,161.6c0.3,0.3,0.7,0.5,1.3,0.5s1-0.2,1.3-0.5c0.5-0.5,0.7-1.4,0.7-2.7s-0.2-2.2-0.7-2.7
	c-0.3-0.3-0.7-0.5-1.3-0.5s-1,0.2-1.3,0.5c-0.5,0.5-0.7,1.4-0.7,2.7S67.9,161.1,68.4,161.6z M75.6,161.4c0.5,0,0.9,0.4,0.9,0.9
	s-0.4,0.9-0.9,0.9s-0.9-0.4-0.9-0.9S75.1,161.4,75.6,161.4z M79.6,163.1v-5.9h-2v-0.9c1.2,0,2-0.7,2.2-1.6h1.1v8.4
	C80.9,163.1,79.6,163.1,79.6,163.1z"/>
<path class="st14" d="M70.2,211.5v-17.6 M78.3,205l-8.1,8.1L62,205"/>
<path class="st13" d="M294.4,139.9h42.5v37.5h-42.5V139.9z"/>
<path class="st1" d="M306.4,163.1h-1.2l-2.5-6.3h1.4l1.8,4.8l1.8-4.8h1.3L306.4,163.1L306.4,163.1z M311,155.9
	c0.5-0.8,1.4-1.4,2.6-1.4s2,0.5,2.6,1.4c0.6,0.8,0.8,1.9,0.8,3.1s-0.2,2.2-0.8,3.1c-0.5,0.8-1.4,1.4-2.6,1.4s-2-0.5-2.6-1.4
	c-0.6-0.8-0.8-1.9-0.8-3.1S310.5,156.7,311,155.9z M312.3,161.6c0.3,0.3,0.7,0.5,1.3,0.5s1-0.2,1.3-0.5c0.5-0.5,0.7-1.4,0.7-2.7
	s-0.2-2.2-0.7-2.7c-0.3-0.3-0.7-0.5-1.3-0.5s-1,0.2-1.3,0.5c-0.5,0.5-0.7,1.4-0.7,2.7S311.8,161.1,312.3,161.6z M319.5,161.4
	c0.5,0,0.9,0.4,0.9,0.9s-0.4,0.9-0.9,0.9s-0.9-0.4-0.9-0.9S319,161.4,319.5,161.4z M322.6,157.6v-0.3c0-1.4,1.1-2.7,2.9-2.7
	s2.8,1.2,2.8,2.6c0,1.1-0.6,2-1.6,2.6l-1.7,1.1c-0.5,0.3-0.9,0.7-1,1.2h4.3v1.2h-5.9c0-1.4,0.6-2.4,2-3.4l1.4-0.9
	c0.8-0.5,1.2-1.1,1.2-1.8c0-0.8-0.5-1.5-1.6-1.5s-1.6,0.8-1.6,1.7v0.4L322.6,157.6L322.6,157.6z"/>
<path class="st14" d="M315.7,211.5v-17.6 M323.8,205l-8.1,8.1l-8.2-8.1"/>
<path class="st13" d="M623.6,139.9h42.5v37.5h-42.5V139.9z"/>
<path class="st1" d="M636.7,163.1h-1.2l-2.5-6.3h1.4l1.8,4.8l1.8-4.8h1.3L636.7,163.1z M642.3,163.1v-5.9h-2v-0.9
	c1.2,0,2-0.7,2.2-1.6h1.1v8.4H642.3z M646.9,161.4c0.5,0,0.9,0.4,0.9,0.9s-0.4,0.9-0.9,0.9s-0.9-0.4-0.9-0.9
	S646.3,161.4,646.9,161.4z M650.5,155.9c0.5-0.8,1.4-1.4,2.6-1.4s2,0.5,2.6,1.4c0.6,0.8,0.8,1.9,0.8,3.1s-0.2,2.2-0.8,3.1
	c-0.5,0.8-1.4,1.4-2.6,1.4s-2-0.5-2.6-1.4c-0.6-0.8-0.8-1.9-0.8-3.1S649.9,156.7,650.5,155.9z M651.7,161.6c0.3,0.3,0.7,0.5,1.3,0.5
	s1-0.2,1.3-0.5c0.5-0.5,0.7-1.4,0.7-2.7s-0.2-2.2-0.7-2.7c-0.3-0.3-0.7-0.5-1.3-0.5s-1,0.2-1.3,0.5c-0.5,0.5-0.7,1.4-0.7,2.7
	S651.2,161.1,651.7,161.6z"/>
<path class="st14" d="M644.9,211.5v-17.6 M653,205l-8.1,8.1l-8.1-8.1"/>
<path class="st15" d="M64.3,368.4H20.4"/>
<path class="st8" d="M260.5,429.9"/>
<path class="st16" d="M246.8,429.9H21"/>
<path class="st8" d="M776.1,429.9"/>
<path class="st17" d="M762.3,429.9H424.9"/>
<path class="st8" d="M123.4,491.4"/>
<path class="st18" d="M109.7,491.4H21"/>
<path class="st8" d="M776.1,491.4"/>
<path class="st19" d="M762.2,491.4H393.7"/>
<path class="st4" d="M84.8,275.7v61.9c0,17,13.8,30.8,30.8,30.8h95.7"/>
<circle class="st6" cx="195.5" cy="368.4" r="15.7"/>
<circle class="st6" cx="148.6" cy="368.4" r="15.8"/>
<path class="st4" d="M536.3,337.6c0,17-13.8,30.8-30.7,30.8 M706.6,337.6c0,17,13.8,30.8,30.8,30.8h23 M567.9,306.9H567
	c-17,0-30.8,13.8-30.8,30.8 M706.6,337.6c0-17-13.8-30.8-30.8-30.8H567.9"/>
<circle class="st20" cx="644.9" cy="306.9" r="15.8"/>
<circle class="st20" cx="598" cy="306.9" r="15.8"/>
<path class="st4" d="M148.6,384.1v91.5 M644.9,291.1v-30"/>
<g>
	<path class="st13" d="M7.8,5.7H104v50H7.8V5.7z"/>
	<g>
		<path class="st21" d="M40.7,36.8v-10h2l2.4,7.1c0.2,0.7,0.4,1.2,0.5,1.5c0.1-0.4,0.3-0.9,0.5-1.6l2.4-7h1.8v10H49v-8.4l-2.9,8.4
			h-1.2L42,28.3v8.5H40.7z"/>
		<path class="st21" d="M57.7,35.9c-0.5,0.4-0.9,0.7-1.3,0.8c-0.4,0.2-0.9,0.2-1.4,0.2c-0.8,0-1.4-0.2-1.8-0.6s-0.6-0.9-0.6-1.5
			c0-0.4,0.1-0.7,0.2-1c0.2-0.3,0.4-0.5,0.6-0.7c0.3-0.2,0.6-0.3,0.9-0.4c0.2-0.1,0.6-0.1,1.1-0.2c1-0.1,1.7-0.3,2.2-0.4
			c0-0.2,0-0.3,0-0.3c0-0.5-0.1-0.9-0.3-1.1c-0.3-0.3-0.8-0.4-1.4-0.4s-1,0.1-1.3,0.3c-0.3,0.2-0.5,0.6-0.6,1.1l-1.2-0.2
			c0.1-0.5,0.3-0.9,0.5-1.2c0.3-0.3,0.6-0.6,1.1-0.7c0.5-0.2,1-0.3,1.6-0.3s1.1,0.1,1.5,0.2s0.7,0.3,0.9,0.6
			c0.2,0.2,0.3,0.5,0.4,0.8c0,0.2,0.1,0.6,0.1,1.1v1.6c0,1.1,0,1.9,0.1,2.2c0.1,0.3,0.2,0.6,0.3,0.9H58
			C57.8,36.6,57.7,36.3,57.7,35.9z M57.6,33.2c-0.4,0.2-1.1,0.3-2,0.5c-0.5,0.1-0.9,0.2-1.1,0.2s-0.4,0.2-0.5,0.4s-0.2,0.4-0.2,0.6
			c0,0.3,0.1,0.6,0.4,0.8c0.2,0.2,0.6,0.3,1.1,0.3s0.9-0.1,1.3-0.3c0.4-0.2,0.6-0.5,0.8-0.9c0.1-0.3,0.2-0.7,0.2-1.2L57.6,33.2
			L57.6,33.2z"/>
		<path class="st21" d="M61.4,28.2v-1.4h1.2v1.4H61.4z M61.4,36.8v-7.3h1.2v7.3H61.4z"/>
		<path class="st21" d="M65.2,36.8v-7.3h1.1v1c0.5-0.8,1.3-1.2,2.3-1.2c0.4,0,0.8,0.1,1.2,0.2c0.4,0.2,0.6,0.4,0.8,0.6
			c0.2,0.2,0.3,0.6,0.4,0.9c0,0.2,0.1,0.6,0.1,1.2v4.5h-1.2v-4.4c0-0.5,0-0.9-0.1-1.1s-0.3-0.4-0.5-0.6c-0.2-0.1-0.5-0.2-0.9-0.2
			c-0.5,0-1,0.2-1.4,0.5s-0.6,1-0.6,1.9v4H65.2z"/>
	</g>
</g>
</svg>
